<mxfile host="app.diagrams.net" agent="Mozilla/5.0 (Macintosh; Intel Mac OS X 10_15_7) AppleWebKit/537.36 (KHTML, like Gecko) Chrome/126.0.0.0 Safari/537.36" version="24.7.5">
  <diagram name="第 1 页" id="J8GREibbCt4KV59v55ON">
    <mxGraphModel dx="1479" dy="728" grid="1" gridSize="10" guides="1" tooltips="1" connect="1" arrows="1" fold="1" page="1" pageScale="1" pageWidth="1169" pageHeight="827" math="0" shadow="0">
      <root>
        <mxCell id="0" />
        <mxCell id="1" parent="0" />
        <mxCell id="eCR380lotrIrXrgE_NF7-7" style="edgeStyle=orthogonalEdgeStyle;rounded=0;orthogonalLoop=1;jettySize=auto;html=1;" edge="1" parent="1" source="eCR380lotrIrXrgE_NF7-1" target="eCR380lotrIrXrgE_NF7-6">
          <mxGeometry relative="1" as="geometry" />
        </mxCell>
        <mxCell id="eCR380lotrIrXrgE_NF7-8" value="数据开发&lt;div&gt;（规范建模）&lt;/div&gt;" style="edgeLabel;html=1;align=center;verticalAlign=middle;resizable=0;points=[];" vertex="1" connectable="0" parent="eCR380lotrIrXrgE_NF7-7">
          <mxGeometry x="0.0583" y="-1" relative="1" as="geometry">
            <mxPoint as="offset" />
          </mxGeometry>
        </mxCell>
        <mxCell id="eCR380lotrIrXrgE_NF7-1" value="数据中台 Dataphin&lt;div&gt;（阿里公有云）&lt;/div&gt;" style="rounded=1;whiteSpace=wrap;html=1;" vertex="1" parent="1">
          <mxGeometry x="497" y="100" width="190" height="70" as="geometry" />
        </mxCell>
        <mxCell id="eCR380lotrIrXrgE_NF7-3" style="edgeStyle=orthogonalEdgeStyle;rounded=0;orthogonalLoop=1;jettySize=auto;html=1;entryX=1;entryY=0.5;entryDx=0;entryDy=0;" edge="1" parent="1" source="eCR380lotrIrXrgE_NF7-2" target="eCR380lotrIrXrgE_NF7-1">
          <mxGeometry relative="1" as="geometry" />
        </mxCell>
        <mxCell id="eCR380lotrIrXrgE_NF7-2" value="存算引擎&amp;nbsp;&lt;span style=&quot;background-color: initial;&quot;&gt;ADB/EMR&lt;/span&gt;&lt;div&gt;&lt;span style=&quot;background-color: initial;&quot;&gt;（阿里公有云）&lt;/span&gt;&lt;/div&gt;" style="rounded=1;whiteSpace=wrap;html=1;" vertex="1" parent="1">
          <mxGeometry x="766" y="100" width="160" height="70" as="geometry" />
        </mxCell>
        <mxCell id="eCR380lotrIrXrgE_NF7-5" style="edgeStyle=orthogonalEdgeStyle;rounded=0;orthogonalLoop=1;jettySize=auto;html=1;entryX=0.5;entryY=1;entryDx=0;entryDy=0;" edge="1" parent="1" source="eCR380lotrIrXrgE_NF7-4" target="eCR380lotrIrXrgE_NF7-2">
          <mxGeometry relative="1" as="geometry" />
        </mxCell>
        <mxCell id="eCR380lotrIrXrgE_NF7-10" style="edgeStyle=orthogonalEdgeStyle;rounded=0;orthogonalLoop=1;jettySize=auto;html=1;" edge="1" parent="1" source="eCR380lotrIrXrgE_NF7-4" target="eCR380lotrIrXrgE_NF7-9">
          <mxGeometry relative="1" as="geometry" />
        </mxCell>
        <mxCell id="eCR380lotrIrXrgE_NF7-4" value="OSS&lt;div&gt;（阿里云 专属存储区）&lt;/div&gt;" style="shape=cylinder3;whiteSpace=wrap;html=1;boundedLbl=1;backgroundOutline=1;size=15;" vertex="1" parent="1">
          <mxGeometry x="746" y="220" width="200" height="80" as="geometry" />
        </mxCell>
        <mxCell id="eCR380lotrIrXrgE_NF7-6" value="" style="shape=actor;whiteSpace=wrap;html=1;" vertex="1" parent="1">
          <mxGeometry x="234" y="100" width="40" height="60" as="geometry" />
        </mxCell>
        <mxCell id="eCR380lotrIrXrgE_NF7-12" style="edgeStyle=orthogonalEdgeStyle;rounded=0;orthogonalLoop=1;jettySize=auto;html=1;entryX=1;entryY=0.5;entryDx=0;entryDy=0;" edge="1" parent="1" source="eCR380lotrIrXrgE_NF7-9" target="eCR380lotrIrXrgE_NF7-11">
          <mxGeometry relative="1" as="geometry" />
        </mxCell>
        <mxCell id="eCR380lotrIrXrgE_NF7-9" value="Doris" style="rounded=1;whiteSpace=wrap;html=1;" vertex="1" parent="1">
          <mxGeometry x="578" y="230" width="110" height="60" as="geometry" />
        </mxCell>
        <mxCell id="eCR380lotrIrXrgE_NF7-11" value="QBI" style="rounded=1;whiteSpace=wrap;html=1;" vertex="1" parent="1">
          <mxGeometry x="391" y="230" width="120" height="60" as="geometry" />
        </mxCell>
        <mxCell id="eCR380lotrIrXrgE_NF7-14" style="edgeStyle=orthogonalEdgeStyle;rounded=0;orthogonalLoop=1;jettySize=auto;html=1;entryX=0;entryY=0.5;entryDx=0;entryDy=0;" edge="1" parent="1" source="eCR380lotrIrXrgE_NF7-13" target="eCR380lotrIrXrgE_NF7-11">
          <mxGeometry relative="1" as="geometry" />
        </mxCell>
        <mxCell id="eCR380lotrIrXrgE_NF7-15" value="&amp;nbsp;BI看板" style="edgeLabel;html=1;align=center;verticalAlign=middle;resizable=0;points=[];" vertex="1" connectable="0" parent="eCR380lotrIrXrgE_NF7-14">
          <mxGeometry x="-0.0714" relative="1" as="geometry">
            <mxPoint y="1" as="offset" />
          </mxGeometry>
        </mxCell>
        <mxCell id="eCR380lotrIrXrgE_NF7-35" style="edgeStyle=orthogonalEdgeStyle;rounded=0;orthogonalLoop=1;jettySize=auto;html=1;entryX=0;entryY=0.5;entryDx=0;entryDy=0;" edge="1" parent="1" source="eCR380lotrIrXrgE_NF7-13" target="eCR380lotrIrXrgE_NF7-32">
          <mxGeometry relative="1" as="geometry" />
        </mxCell>
        <mxCell id="eCR380lotrIrXrgE_NF7-36" value="&amp;nbsp;BI看板/分析" style="edgeLabel;html=1;align=center;verticalAlign=middle;resizable=0;points=[];" vertex="1" connectable="0" parent="eCR380lotrIrXrgE_NF7-35">
          <mxGeometry x="0.0053" relative="1" as="geometry">
            <mxPoint as="offset" />
          </mxGeometry>
        </mxCell>
        <mxCell id="eCR380lotrIrXrgE_NF7-13" value="" style="shape=actor;whiteSpace=wrap;html=1;" vertex="1" parent="1">
          <mxGeometry x="110" y="370" width="40" height="60" as="geometry" />
        </mxCell>
        <mxCell id="eCR380lotrIrXrgE_NF7-33" style="edgeStyle=orthogonalEdgeStyle;rounded=0;orthogonalLoop=1;jettySize=auto;html=1;entryX=0.5;entryY=0;entryDx=0;entryDy=0;" edge="1" parent="1" source="eCR380lotrIrXrgE_NF7-23" target="eCR380lotrIrXrgE_NF7-32">
          <mxGeometry relative="1" as="geometry" />
        </mxCell>
        <mxCell id="eCR380lotrIrXrgE_NF7-34" style="edgeStyle=orthogonalEdgeStyle;rounded=0;orthogonalLoop=1;jettySize=auto;html=1;entryX=0.5;entryY=1;entryDx=0;entryDy=0;" edge="1" parent="1" source="eCR380lotrIrXrgE_NF7-29" target="eCR380lotrIrXrgE_NF7-32">
          <mxGeometry relative="1" as="geometry" />
        </mxCell>
        <mxCell id="eCR380lotrIrXrgE_NF7-32" value="PowerBI&lt;div&gt;（SaaS）&lt;/div&gt;" style="rounded=1;whiteSpace=wrap;html=1;" vertex="1" parent="1">
          <mxGeometry x="210" y="532" width="120" height="60" as="geometry" />
        </mxCell>
        <mxCell id="eCR380lotrIrXrgE_NF7-44" value="" style="group" vertex="1" connectable="0" parent="1">
          <mxGeometry x="350" y="360" width="650" height="171" as="geometry" />
        </mxCell>
        <mxCell id="eCR380lotrIrXrgE_NF7-30" style="edgeStyle=orthogonalEdgeStyle;rounded=0;orthogonalLoop=1;jettySize=auto;html=1;" edge="1" parent="eCR380lotrIrXrgE_NF7-44" source="eCR380lotrIrXrgE_NF7-17" target="eCR380lotrIrXrgE_NF7-23">
          <mxGeometry relative="1" as="geometry" />
        </mxCell>
        <mxCell id="eCR380lotrIrXrgE_NF7-17" value="线下数仓 CDH&lt;div&gt;（本地机房 医药）&lt;/div&gt;" style="rounded=1;whiteSpace=wrap;html=1;" vertex="1" parent="eCR380lotrIrXrgE_NF7-44">
          <mxGeometry x="224.13793103448273" y="70" width="165.86206896551724" height="60" as="geometry" />
        </mxCell>
        <mxCell id="eCR380lotrIrXrgE_NF7-20" style="edgeStyle=orthogonalEdgeStyle;rounded=0;orthogonalLoop=1;jettySize=auto;html=1;" edge="1" parent="eCR380lotrIrXrgE_NF7-44" source="eCR380lotrIrXrgE_NF7-19" target="eCR380lotrIrXrgE_NF7-17">
          <mxGeometry relative="1" as="geometry" />
        </mxCell>
        <mxCell id="eCR380lotrIrXrgE_NF7-19" value="本地存储-医药" style="shape=cylinder3;whiteSpace=wrap;html=1;boundedLbl=1;backgroundOutline=1;size=15;" vertex="1" parent="eCR380lotrIrXrgE_NF7-44">
          <mxGeometry x="454.99999999999994" y="60" width="156.8965517241379" height="80" as="geometry" />
        </mxCell>
        <mxCell id="eCR380lotrIrXrgE_NF7-23" value="ADB" style="rounded=1;whiteSpace=wrap;html=1;" vertex="1" parent="eCR380lotrIrXrgE_NF7-44">
          <mxGeometry x="23.534482758620687" y="70" width="134.48275862068965" height="60" as="geometry" />
        </mxCell>
        <mxCell id="eCR380lotrIrXrgE_NF7-40" value="" style="swimlane;startSize=0;" vertex="1" parent="eCR380lotrIrXrgE_NF7-44">
          <mxGeometry y="29" width="650" height="142" as="geometry">
            <mxRectangle y="29" width="50" height="40" as="alternateBounds" />
          </mxGeometry>
        </mxCell>
        <mxCell id="eCR380lotrIrXrgE_NF7-41" value="医药IDC" style="text;html=1;align=center;verticalAlign=middle;whiteSpace=wrap;rounded=0;" vertex="1" parent="eCR380lotrIrXrgE_NF7-44">
          <mxGeometry x="544.655172413793" width="105.34482758620689" height="30" as="geometry" />
        </mxCell>
        <mxCell id="eCR380lotrIrXrgE_NF7-45" value="" style="group" vertex="1" connectable="0" parent="1">
          <mxGeometry x="350" y="578" width="650" height="172" as="geometry" />
        </mxCell>
        <mxCell id="eCR380lotrIrXrgE_NF7-31" style="edgeStyle=orthogonalEdgeStyle;rounded=0;orthogonalLoop=1;jettySize=auto;html=1;entryX=1;entryY=0.5;entryDx=0;entryDy=0;" edge="1" parent="eCR380lotrIrXrgE_NF7-45" source="eCR380lotrIrXrgE_NF7-18" target="eCR380lotrIrXrgE_NF7-29">
          <mxGeometry relative="1" as="geometry" />
        </mxCell>
        <mxCell id="eCR380lotrIrXrgE_NF7-18" value="线下数仓 CDH&lt;div&gt;（本地机房 汉霖）&lt;/div&gt;" style="rounded=1;whiteSpace=wrap;html=1;" vertex="1" parent="eCR380lotrIrXrgE_NF7-45">
          <mxGeometry x="224.13793103448273" y="71" width="165.86206896551724" height="60" as="geometry" />
        </mxCell>
        <mxCell id="eCR380lotrIrXrgE_NF7-22" style="edgeStyle=orthogonalEdgeStyle;rounded=0;orthogonalLoop=1;jettySize=auto;html=1;" edge="1" parent="eCR380lotrIrXrgE_NF7-45" source="eCR380lotrIrXrgE_NF7-21" target="eCR380lotrIrXrgE_NF7-18">
          <mxGeometry relative="1" as="geometry" />
        </mxCell>
        <mxCell id="eCR380lotrIrXrgE_NF7-21" value="本地存储-汉霖" style="shape=cylinder3;whiteSpace=wrap;html=1;boundedLbl=1;backgroundOutline=1;size=15;" vertex="1" parent="eCR380lotrIrXrgE_NF7-45">
          <mxGeometry x="454.99999999999994" y="61" width="156.8965517241379" height="80" as="geometry" />
        </mxCell>
        <mxCell id="eCR380lotrIrXrgE_NF7-29" value="ADB" style="rounded=1;whiteSpace=wrap;html=1;" vertex="1" parent="eCR380lotrIrXrgE_NF7-45">
          <mxGeometry x="23.534482758620687" y="71" width="134.48275862068965" height="60" as="geometry" />
        </mxCell>
        <mxCell id="eCR380lotrIrXrgE_NF7-42" value="" style="swimlane;startSize=0;" vertex="1" parent="eCR380lotrIrXrgE_NF7-45">
          <mxGeometry y="30" width="650" height="142" as="geometry" />
        </mxCell>
        <mxCell id="eCR380lotrIrXrgE_NF7-43" value="汉霖IDC" style="text;html=1;align=center;verticalAlign=middle;whiteSpace=wrap;rounded=0;" vertex="1" parent="eCR380lotrIrXrgE_NF7-45">
          <mxGeometry x="544.655172413793" width="105.34482758620689" height="30" as="geometry" />
        </mxCell>
        <mxCell id="eCR380lotrIrXrgE_NF7-46" value="" style="swimlane;startSize=0;" vertex="1" parent="1">
          <mxGeometry x="351" y="70" width="649" height="270" as="geometry" />
        </mxCell>
        <mxCell id="eCR380lotrIrXrgE_NF7-47" value="阿里公有云" style="text;html=1;align=center;verticalAlign=middle;whiteSpace=wrap;rounded=0;" vertex="1" parent="1">
          <mxGeometry x="906" y="40" width="94" height="30" as="geometry" />
        </mxCell>
        <mxCell id="eCR380lotrIrXrgE_NF7-48" style="edgeStyle=orthogonalEdgeStyle;rounded=0;orthogonalLoop=1;jettySize=auto;html=1;entryX=1;entryY=0.5;entryDx=0;entryDy=0;exitX=1;exitY=0.25;exitDx=0;exitDy=0;" edge="1" parent="1" source="eCR380lotrIrXrgE_NF7-40" target="eCR380lotrIrXrgE_NF7-46">
          <mxGeometry relative="1" as="geometry">
            <Array as="points">
              <mxPoint x="1070" y="425" />
              <mxPoint x="1070" y="205" />
            </Array>
          </mxGeometry>
        </mxCell>
        <mxCell id="eCR380lotrIrXrgE_NF7-49" value="VLAN" style="edgeLabel;html=1;align=center;verticalAlign=middle;resizable=0;points=[];" vertex="1" connectable="0" parent="eCR380lotrIrXrgE_NF7-48">
          <mxGeometry x="-0.1089" relative="1" as="geometry">
            <mxPoint as="offset" />
          </mxGeometry>
        </mxCell>
        <mxCell id="eCR380lotrIrXrgE_NF7-51" style="edgeStyle=orthogonalEdgeStyle;rounded=0;orthogonalLoop=1;jettySize=auto;html=1;entryX=1;entryY=0.75;entryDx=0;entryDy=0;exitX=1;exitY=0.5;exitDx=0;exitDy=0;" edge="1" parent="1" source="eCR380lotrIrXrgE_NF7-42" target="eCR380lotrIrXrgE_NF7-40">
          <mxGeometry relative="1" as="geometry">
            <Array as="points">
              <mxPoint x="1070" y="679" />
              <mxPoint x="1070" y="496" />
            </Array>
          </mxGeometry>
        </mxCell>
        <mxCell id="eCR380lotrIrXrgE_NF7-52" value="VLAN" style="edgeLabel;html=1;align=center;verticalAlign=middle;resizable=0;points=[];" vertex="1" connectable="0" parent="eCR380lotrIrXrgE_NF7-51">
          <mxGeometry x="-0.1654" relative="1" as="geometry">
            <mxPoint as="offset" />
          </mxGeometry>
        </mxCell>
      </root>
    </mxGraphModel>
  </diagram>
</mxfile>
